<svg width="45" height="45" viewBox="0 0 45 45" fill="none" xmlns="http://www.w3.org/2000/svg">
<g clip-path="url(#clip0_7_1225)">
<rect width="45" height="45" rx="22.5" fill="#8D332F"/>
<path d="M26.85 35.9V9.1H33.55V35.9H26.85ZM13.45 35.9V9.1H20.15V35.9H13.45ZM23.5 -11C27.8993 -11 32.2555 -10.1335 36.3199 -8.44996C40.3843 -6.76643 44.0773 -4.29884 47.1881 -1.18808C50.2988 1.92268 52.7664 5.6157 54.45 9.6801C56.1335 13.7445 57 18.1007 57 22.5C57 31.3848 53.4705 39.9056 47.1881 46.1881C40.9056 52.4705 32.3848 56 23.5 56C19.1007 56 14.7445 55.1335 10.6801 53.45C6.6157 51.7664 2.92268 49.2988 -0.188077 46.1881C-6.47055 39.9056 -10 31.3848 -10 22.5C-10 13.6152 -6.47055 5.09439 -0.188077 -1.18808C6.09439 -7.47055 14.6152 -11 23.5 -11ZM23.5 -4.3C16.3922 -4.3 9.57551 -1.47644 4.54954 3.54954C-0.476437 8.57551 -3.3 15.3922 -3.3 22.5C-3.3 29.6078 -0.476437 36.4245 4.54954 41.4505C9.57551 46.4764 16.3922 49.3 23.5 49.3C30.6078 49.3 37.4245 46.4764 42.4505 41.4505C47.4764 36.4245 50.3 29.6078 50.3 22.5C50.3 15.3922 47.4764 8.57551 42.4505 3.54954C37.4245 -1.47644 30.6078 -4.3 23.5 -4.3Z" fill="white"/>
</g>
<defs>
<clipPath id="clip0_7_1225">
<rect width="45" height="45" rx="22.5" fill="white"/>
</clipPath>
</defs>
</svg>
