<svg width="45" height="45" viewBox="0 0 45 45" fill="none" xmlns="http://www.w3.org/2000/svg">
<g clip-path="url(#clip0_7_1208)">
<rect width="45" height="45" rx="22.5" fill="#8D332F"/>
<path d="M23.5 49.8C8.7265 49.8 -3.3 37.7735 -3.3 23C-3.3 8.2265 8.7265 -3.8 23.5 -3.8C38.2735 -3.8 50.3 8.2265 50.3 23C50.3 37.7735 38.2735 49.8 23.5 49.8ZM23.5 -10.5C19.1007 -10.5 14.7445 -9.6335 10.6801 -7.94996C6.6157 -6.26643 2.92268 -3.79884 -0.188077 -0.688077C-6.47055 5.59439 -10 14.1152 -10 23C-10 31.8848 -6.47055 40.4056 -0.188077 46.6881C2.92268 49.7988 6.6157 52.2664 10.6801 53.95C14.7445 55.6335 19.1007 56.5 23.5 56.5C32.3848 56.5 40.9056 52.9705 47.1881 46.6881C53.4705 40.4056 57 31.8848 57 23C57 18.6007 56.1335 14.2445 54.45 10.1801C52.7664 6.1157 50.2988 2.42268 47.1881 -0.688077C44.0773 -3.79884 40.3843 -6.26643 36.3199 -7.94996C32.2555 -9.6335 27.8993 -10.5 23.5 -10.5ZM16.8 38.075L36.9 23L16.8 7.925V38.075Z" fill="white"/>
</g>
<defs>
<clipPath id="clip0_7_1208">
<rect width="45" height="45" rx="22.5" fill="white"/>
</clipPath>
</defs>
</svg>
