<svg width="60" height="57" viewBox="0 0 60 57" fill="none" xmlns="http://www.w3.org/2000/svg">
<path d="M59.625 0.375V39.4375C59.625 42.3383 58.4727 45.1203 56.4215 47.1715C54.3703 49.2227 51.5883 50.375 48.6875 50.375C45.7867 50.375 43.0047 49.2227 40.9535 47.1715C38.9023 45.1203 37.75 42.3383 37.75 39.4375C37.75 36.5367 38.9023 33.7547 40.9535 31.7035C43.0047 29.6523 45.7867 28.5 48.6875 28.5C50.375 28.5 51.9688 28.875 53.375 29.5625V11.2187L22.125 17.875V45.6875C22.125 48.5883 20.9727 51.3703 18.9215 53.4215C16.8703 55.4727 14.0883 56.625 11.1875 56.625C8.28669 56.625 5.5047 55.4727 3.45352 53.4215C1.40234 51.3703 0.25 48.5883 0.25 45.6875C0.25 42.7867 1.40234 40.0047 3.45352 37.9535C5.5047 35.9023 8.28669 34.75 11.1875 34.75C12.875 34.75 14.4688 35.125 15.875 35.8125V9.75L59.625 0.375Z" fill="white"/>
</svg>
