<svg width="31" height="31" viewBox="0 0 31 31" fill="none" xmlns="http://www.w3.org/2000/svg">
<path d="M16.9583 0.960449C23.8562 1.64587 29.3541 7.11462 30.0103 14.0417C30.8124 22.0625 24.9791 29.1792 16.9583 29.9813V27.0646C22.2666 26.4375 26.4374 22.2229 27.1082 16.9146C27.8958 10.5125 23.3603 4.69378 16.9583 3.90628V0.989616V0.960449ZM14.0416 1.0042V3.92087C11.9562 4.21253 9.98742 5.05837 8.35408 6.37087L6.26867 4.21253C8.48533 2.37503 11.1978 1.28128 14.0416 1.0042ZM4.21242 6.26878L6.29784 8.3542C4.99992 10.0021 4.18325 11.9709 3.90617 14.0417H0.989502C1.28117 11.1834 2.37492 8.48545 4.21242 6.26878ZM1.00409 16.9584H3.92075C4.18325 19.0292 5.0145 20.9979 6.29784 22.6459L4.227 24.7313C2.41867 22.5146 1.29575 19.8167 1.00409 16.9584ZM8.35408 24.7896C10.002 26.0729 11.9708 26.9042 14.0416 27.1667V30.0834C11.1833 29.7771 8.47075 28.625 6.26867 26.7875L8.35408 24.7896ZM15.4999 8.93753L8.93742 15.5H14.0416V21.3334H16.9583V15.5H22.0624L15.4999 8.93753Z" fill="white"/>
</svg>
